<mxfile host="app.diagrams.net" modified="2024-03-20T03:31:21.861Z" agent="Mozilla/5.0 (Windows NT 10.0; Win64; x64) AppleWebKit/537.36 (KHTML, like Gecko) Chrome/122.0.0.0 Safari/537.36" etag="taHSd0BHtkhVAIVuf6KA" version="24.0.7" type="device">
  <diagram name="Page-1" id="-2MoRC34GebdiVg5hhV4">
    <mxGraphModel dx="2607" dy="1342" grid="1" gridSize="10" guides="1" tooltips="1" connect="1" arrows="1" fold="1" page="1" pageScale="1" pageWidth="827" pageHeight="1169" math="0" shadow="0">
      <root>
        <mxCell id="0" />
        <mxCell id="1" parent="0" />
        <mxCell id="NhB9vmYEDlGxyxcBhZ2g-3" value="" style="rounded=1;whiteSpace=wrap;html=1;arcSize=8;" parent="1" vertex="1">
          <mxGeometry width="820" height="1160" as="geometry" />
        </mxCell>
        <mxCell id="NhB9vmYEDlGxyxcBhZ2g-8" value="Password input" style="rounded=1;whiteSpace=wrap;html=1;fontSize=24;" parent="1" vertex="1">
          <mxGeometry x="40" y="520" width="510" height="60" as="geometry" />
        </mxCell>
        <mxCell id="NhB9vmYEDlGxyxcBhZ2g-10" value="Email input" style="rounded=1;whiteSpace=wrap;html=1;fontSize=24;" parent="1" vertex="1">
          <mxGeometry x="40" y="420" width="510" height="60" as="geometry" />
        </mxCell>
        <mxCell id="NhB9vmYEDlGxyxcBhZ2g-12" value="&lt;font style=&quot;font-size: 24px;&quot;&gt;Login btn&lt;/font&gt;" style="rounded=1;whiteSpace=wrap;html=1;" parent="1" vertex="1">
          <mxGeometry x="600" y="445" width="190" height="120" as="geometry" />
        </mxCell>
        <mxCell id="NhB9vmYEDlGxyxcBhZ2g-13" style="edgeStyle=orthogonalEdgeStyle;rounded=0;orthogonalLoop=1;jettySize=auto;html=1;exitX=1;exitY=0.5;exitDx=0;exitDy=0;" parent="1" source="NhB9vmYEDlGxyxcBhZ2g-14" edge="1">
          <mxGeometry relative="1" as="geometry">
            <mxPoint x="950" y="79.81818181818176" as="targetPoint" />
          </mxGeometry>
        </mxCell>
        <mxCell id="NhB9vmYEDlGxyxcBhZ2g-14" value="IMG BTN&lt;div&gt;Logo&lt;/div&gt;" style="rounded=1;whiteSpace=wrap;html=1;" parent="1" vertex="1">
          <mxGeometry x="40" y="30" width="180" height="100" as="geometry" />
        </mxCell>
        <mxCell id="NhB9vmYEDlGxyxcBhZ2g-15" value="&lt;font style=&quot;font-size: 24px;&quot;&gt;Goes to home page through logo click&amp;nbsp;&lt;/font&gt;" style="text;html=1;align=center;verticalAlign=middle;whiteSpace=wrap;rounded=0;" parent="1" vertex="1">
          <mxGeometry x="1019" y="65" width="220" height="30" as="geometry" />
        </mxCell>
        <mxCell id="NhB9vmYEDlGxyxcBhZ2g-17" value="&lt;font style=&quot;font-size: 24px;&quot;&gt;Register btn&lt;/font&gt;" style="rounded=1;whiteSpace=wrap;html=1;" parent="1" vertex="1">
          <mxGeometry x="70" y="800" width="680" height="60" as="geometry" />
        </mxCell>
        <mxCell id="NhB9vmYEDlGxyxcBhZ2g-19" value="Forgot Password BTN" style="rounded=1;whiteSpace=wrap;html=1;fontSize=24;" parent="1" vertex="1">
          <mxGeometry x="75" y="630" width="440" height="60" as="geometry" />
        </mxCell>
        <mxCell id="NhB9vmYEDlGxyxcBhZ2g-20" value="&lt;font style=&quot;font-size: 24px;&quot;&gt;light Orange with white text button&lt;/font&gt;" style="text;strokeColor=none;align=center;fillColor=none;html=1;verticalAlign=middle;whiteSpace=wrap;rounded=0;" parent="1" vertex="1">
          <mxGeometry x="1090" y="490" width="210" height="30" as="geometry" />
        </mxCell>
        <mxCell id="NhB9vmYEDlGxyxcBhZ2g-21" value="User btn" style="rounded=1;whiteSpace=wrap;html=1;fontSize=24;" parent="1" vertex="1">
          <mxGeometry x="40" y="330" width="130" height="60" as="geometry" />
        </mxCell>
        <mxCell id="NhB9vmYEDlGxyxcBhZ2g-22" value="Supplier btn" style="rounded=1;whiteSpace=wrap;html=1;fontSize=24;" parent="1" vertex="1">
          <mxGeometry x="230" y="330" width="130" height="60" as="geometry" />
        </mxCell>
        <mxCell id="NhB9vmYEDlGxyxcBhZ2g-23" value="Admin btn" style="rounded=1;whiteSpace=wrap;html=1;fontSize=24;" parent="1" vertex="1">
          <mxGeometry x="420" y="330" width="130" height="60" as="geometry" />
        </mxCell>
        <mxCell id="xKRlc9DtnFo2qIW4jxW5-3" value="" style="rounded=1;whiteSpace=wrap;html=1;arcSize=8;" parent="1" vertex="1">
          <mxGeometry width="820" height="1160" as="geometry" />
        </mxCell>
        <mxCell id="xKRlc9DtnFo2qIW4jxW5-13" style="edgeStyle=orthogonalEdgeStyle;rounded=0;orthogonalLoop=1;jettySize=auto;html=1;exitX=1;exitY=0.5;exitDx=0;exitDy=0;" parent="1" source="xKRlc9DtnFo2qIW4jxW5-14" edge="1">
          <mxGeometry relative="1" as="geometry">
            <mxPoint x="950" y="79.81818181818176" as="targetPoint" />
          </mxGeometry>
        </mxCell>
        <mxCell id="xKRlc9DtnFo2qIW4jxW5-14" value="IMG BTN&lt;div&gt;Logo&lt;/div&gt;" style="rounded=1;whiteSpace=wrap;html=1;" parent="1" vertex="1">
          <mxGeometry x="40" y="30" width="180" height="100" as="geometry" />
        </mxCell>
        <mxCell id="xKRlc9DtnFo2qIW4jxW5-15" value="&lt;font style=&quot;font-size: 24px;&quot;&gt;Goes to home page through logo click&amp;nbsp;&lt;/font&gt;" style="text;html=1;align=center;verticalAlign=middle;whiteSpace=wrap;rounded=0;" parent="1" vertex="1">
          <mxGeometry x="1019" y="65" width="220" height="30" as="geometry" />
        </mxCell>
        <mxCell id="xKRlc9DtnFo2qIW4jxW5-20" value="&lt;font style=&quot;font-size: 24px;&quot;&gt;light Orange with white text button&lt;/font&gt;" style="text;strokeColor=none;align=center;fillColor=none;html=1;verticalAlign=middle;whiteSpace=wrap;rounded=0;" parent="1" vertex="1">
          <mxGeometry x="1090" y="490" width="210" height="30" as="geometry" />
        </mxCell>
        <mxCell id="gr5vaaQZ8PrNDKyyffWc-1" value="&lt;font style=&quot;font-size: 24px;&quot;&gt;Register instead btn&lt;/font&gt;" style="rounded=1;whiteSpace=wrap;html=1;" vertex="1" parent="1">
          <mxGeometry x="73" y="1030" width="680" height="60" as="geometry" />
        </mxCell>
        <mxCell id="gr5vaaQZ8PrNDKyyffWc-3" value="&lt;font style=&quot;font-size: 24px;&quot;&gt;&amp;nbsp;Background color&amp;nbsp;#CCE8EE (extremely Light blue)&lt;/font&gt;" style="text;strokeColor=none;align=center;fillColor=none;html=1;verticalAlign=middle;whiteSpace=wrap;rounded=0;" vertex="1" parent="1">
          <mxGeometry x="1330" y="240" width="240" height="130" as="geometry" />
        </mxCell>
        <mxCell id="gr5vaaQZ8PrNDKyyffWc-4" value="&lt;font style=&quot;font-size: 24px;&quot;&gt;All text is Font&amp;nbsp;&lt;/font&gt;&lt;div&gt;&lt;font style=&quot;&quot;&gt;&lt;font style=&quot;font-size: 24px;&quot;&gt;Montserrat&lt;/font&gt;&lt;br&gt;&lt;/font&gt;&lt;/div&gt;" style="text;strokeColor=none;align=center;fillColor=none;html=1;verticalAlign=middle;whiteSpace=wrap;rounded=0;" vertex="1" parent="1">
          <mxGeometry x="1330" y="160" width="240" height="90" as="geometry" />
        </mxCell>
        <mxCell id="gr5vaaQZ8PrNDKyyffWc-5" value="Email input" style="rounded=1;whiteSpace=wrap;html=1;fontSize=24;" vertex="1" parent="1">
          <mxGeometry x="158" y="520" width="510" height="60" as="geometry" />
        </mxCell>
        <mxCell id="gr5vaaQZ8PrNDKyyffWc-6" value="Admin Key Input" style="rounded=1;whiteSpace=wrap;html=1;fontSize=24;" vertex="1" parent="1">
          <mxGeometry x="158" y="430" width="510" height="60" as="geometry" />
        </mxCell>
        <mxCell id="gr5vaaQZ8PrNDKyyffWc-7" value="&lt;span style=&quot;font-size: 24px;&quot;&gt;Login btn&lt;/span&gt;" style="rounded=1;whiteSpace=wrap;html=1;" vertex="1" parent="1">
          <mxGeometry x="318" y="820" width="190" height="70" as="geometry" />
        </mxCell>
        <mxCell id="gr5vaaQZ8PrNDKyyffWc-8" style="edgeStyle=orthogonalEdgeStyle;rounded=0;orthogonalLoop=1;jettySize=auto;html=1;exitX=1;exitY=0.5;exitDx=0;exitDy=0;entryX=0.75;entryY=1;entryDx=0;entryDy=0;" edge="1" parent="1">
          <mxGeometry relative="1" as="geometry">
            <mxPoint x="1258" y="530" as="targetPoint" />
            <mxPoint x="753" y="1060" as="sourcePoint" />
          </mxGeometry>
        </mxCell>
        <mxCell id="gr5vaaQZ8PrNDKyyffWc-9" style="edgeStyle=orthogonalEdgeStyle;rounded=0;orthogonalLoop=1;jettySize=auto;html=1;exitX=1;exitY=0.5;exitDx=0;exitDy=0;entryX=0.75;entryY=1;entryDx=0;entryDy=0;" edge="1" parent="1" source="gr5vaaQZ8PrNDKyyffWc-10">
          <mxGeometry relative="1" as="geometry">
            <mxPoint x="1090" y="680" as="targetPoint" />
          </mxGeometry>
        </mxCell>
        <mxCell id="gr5vaaQZ8PrNDKyyffWc-10" value="Forgot Password BTN" style="rounded=1;whiteSpace=wrap;html=1;fontSize=24;" vertex="1" parent="1">
          <mxGeometry x="193" y="700" width="440" height="60" as="geometry" />
        </mxCell>
        <mxCell id="gr5vaaQZ8PrNDKyyffWc-11" style="edgeStyle=orthogonalEdgeStyle;rounded=0;orthogonalLoop=1;jettySize=auto;html=1;exitX=0.5;exitY=0;exitDx=0;exitDy=0;" edge="1" parent="1" source="gr5vaaQZ8PrNDKyyffWc-12">
          <mxGeometry relative="1" as="geometry">
            <mxPoint x="1030" y="610" as="targetPoint" />
          </mxGeometry>
        </mxCell>
        <mxCell id="gr5vaaQZ8PrNDKyyffWc-12" value="User btn" style="rounded=1;whiteSpace=wrap;html=1;fontSize=24;" vertex="1" parent="1">
          <mxGeometry x="158" y="340" width="130" height="60" as="geometry" />
        </mxCell>
        <mxCell id="gr5vaaQZ8PrNDKyyffWc-13" style="edgeStyle=orthogonalEdgeStyle;rounded=0;orthogonalLoop=1;jettySize=auto;html=1;exitX=0.5;exitY=0;exitDx=0;exitDy=0;" edge="1" parent="1" source="gr5vaaQZ8PrNDKyyffWc-14">
          <mxGeometry relative="1" as="geometry">
            <mxPoint x="1030" y="610" as="targetPoint" />
          </mxGeometry>
        </mxCell>
        <mxCell id="gr5vaaQZ8PrNDKyyffWc-14" value="Supplier btn" style="rounded=1;whiteSpace=wrap;html=1;fontSize=24;" vertex="1" parent="1">
          <mxGeometry x="348" y="340" width="130" height="60" as="geometry" />
        </mxCell>
        <mxCell id="gr5vaaQZ8PrNDKyyffWc-15" style="edgeStyle=orthogonalEdgeStyle;rounded=0;orthogonalLoop=1;jettySize=auto;html=1;exitX=1;exitY=0.5;exitDx=0;exitDy=0;" edge="1" parent="1" source="gr5vaaQZ8PrNDKyyffWc-16">
          <mxGeometry relative="1" as="geometry">
            <mxPoint x="1030" y="620" as="targetPoint" />
          </mxGeometry>
        </mxCell>
        <mxCell id="gr5vaaQZ8PrNDKyyffWc-16" value="Admin btn" style="rounded=1;whiteSpace=wrap;html=1;fontSize=24;" vertex="1" parent="1">
          <mxGeometry x="538" y="340" width="130" height="60" as="geometry" />
        </mxCell>
        <mxCell id="gr5vaaQZ8PrNDKyyffWc-17" style="edgeStyle=orthogonalEdgeStyle;rounded=0;orthogonalLoop=1;jettySize=auto;html=1;exitX=1;exitY=0.5;exitDx=0;exitDy=0;entryX=0.5;entryY=1;entryDx=0;entryDy=0;" edge="1" parent="1" source="gr5vaaQZ8PrNDKyyffWc-18">
          <mxGeometry relative="1" as="geometry">
            <mxPoint x="1030" y="680" as="targetPoint" />
          </mxGeometry>
        </mxCell>
        <mxCell id="gr5vaaQZ8PrNDKyyffWc-18" value="Password input" style="rounded=1;whiteSpace=wrap;html=1;fontSize=24;" vertex="1" parent="1">
          <mxGeometry x="158" y="610" width="510" height="60" as="geometry" />
        </mxCell>
        <mxCell id="gr5vaaQZ8PrNDKyyffWc-19" style="edgeStyle=orthogonalEdgeStyle;rounded=0;orthogonalLoop=1;jettySize=auto;html=1;exitX=1;exitY=0.5;exitDx=0;exitDy=0;entryX=0.59;entryY=1.2;entryDx=0;entryDy=0;entryPerimeter=0;" edge="1" parent="1" source="gr5vaaQZ8PrNDKyyffWc-7">
          <mxGeometry relative="1" as="geometry">
            <mxPoint x="1224" y="536" as="targetPoint" />
          </mxGeometry>
        </mxCell>
        <mxCell id="gr5vaaQZ8PrNDKyyffWc-20" style="edgeStyle=orthogonalEdgeStyle;rounded=0;orthogonalLoop=1;jettySize=auto;html=1;exitX=1;exitY=0.5;exitDx=0;exitDy=0;entryX=0.183;entryY=0;entryDx=0;entryDy=0;entryPerimeter=0;" edge="1" parent="1" source="gr5vaaQZ8PrNDKyyffWc-5">
          <mxGeometry relative="1" as="geometry">
            <mxPoint x="954" y="620" as="targetPoint" />
          </mxGeometry>
        </mxCell>
        <mxCell id="gr5vaaQZ8PrNDKyyffWc-21" style="edgeStyle=orthogonalEdgeStyle;rounded=0;orthogonalLoop=1;jettySize=auto;html=1;exitX=1;exitY=0.5;exitDx=0;exitDy=0;entryX=0.325;entryY=-0.033;entryDx=0;entryDy=0;entryPerimeter=0;" edge="1" parent="1" source="gr5vaaQZ8PrNDKyyffWc-6">
          <mxGeometry relative="1" as="geometry">
            <mxPoint x="988" y="618" as="targetPoint" />
          </mxGeometry>
        </mxCell>
        <mxCell id="gr5vaaQZ8PrNDKyyffWc-22" value="&lt;font style=&quot;font-size: 24px;&quot;&gt;white filled with black outline and text&lt;/font&gt;" style="text;strokeColor=none;align=center;fillColor=none;html=1;verticalAlign=middle;whiteSpace=wrap;rounded=0;" vertex="1" parent="1">
          <mxGeometry x="910" y="620" width="240" height="60" as="geometry" />
        </mxCell>
      </root>
    </mxGraphModel>
  </diagram>
</mxfile>
